<svg width="54" height="67" viewBox="0 0 54 67" fill="none" xmlns="http://www.w3.org/2000/svg">
<path d="M48.6054 67.0001H5.40019C5.33914 66.9687 5.27994 66.9242 5.21519 66.9094C1.80377 66.1109 -0.00369435 63.8323 5.66931e-06 60.3105C0.0148058 42.5036 0.0314559 24.6949 0.057356 6.88799C0.057356 6.2433 0.057356 5.57267 0.220157 4.95762C1.43746 0.344719 5.21334 -0.383341 9.04656 0.150199C9.04656 0.9079 9.02621 1.67301 9.05396 2.43442C9.07431 2.98648 9.09466 3.55152 9.22047 4.08691C9.82912 6.66383 12.014 8.36078 14.7298 8.36449C22.831 8.37375 30.9322 8.36819 39.0316 8.36819C42.7297 8.36819 45.0108 6.0673 45.0145 2.33438C45.0145 1.58038 45.0145 0.824534 45.0145 0.0316346C45.9858 0.0316346 46.8608 0.0242244 47.734 0.0316346C51.2842 0.068686 54.0019 2.77158 54 6.34704C53.9945 24.3855 53.976 42.424 53.9482 60.4624C53.9426 63.8415 52.076 66.1239 48.7793 66.8983C48.7164 66.9131 48.6627 66.965 48.6054 67.0001ZM35.0485 52.828C37.4479 52.828 39.8456 52.8317 42.245 52.828C43.6418 52.8261 44.589 51.9703 44.5834 50.7346C44.5779 49.5008 43.6288 48.6616 42.2247 48.6616C37.4739 48.6597 32.723 48.6597 27.9722 48.6616C26.581 48.6616 25.6227 49.5249 25.6301 50.7531C25.6375 51.9814 26.5939 52.8243 27.9907 52.828C30.3439 52.8317 32.6953 52.828 35.0485 52.828ZM35.1724 20.8712C32.773 20.8712 30.3735 20.8693 27.974 20.8712C26.5828 20.873 25.6227 21.7326 25.6282 22.9609C25.6338 24.1891 26.5902 25.0358 27.9888 25.0376C32.7175 25.0395 37.4479 25.0413 42.1766 25.0376C43.5733 25.0376 44.5187 24.1836 44.5131 22.9461C44.5076 21.7104 43.5641 20.873 42.1618 20.8712C39.8326 20.8675 37.5016 20.8712 35.1724 20.8712ZM35.0818 34.7654C32.7064 34.7654 30.3291 34.7617 27.9537 34.7654C26.5736 34.7673 25.6097 35.6491 25.6301 36.8774C25.6504 38.0815 26.5958 38.93 27.9426 38.9319C32.6953 38.9356 37.4479 38.9356 42.2006 38.9319C43.5863 38.9319 44.5353 38.0575 44.5168 36.8199C44.4983 35.6065 43.5659 34.7692 42.2117 34.7673C39.8363 34.7617 37.459 34.7673 35.0836 34.7673L35.0818 34.7654ZM14.0268 37.0941C13.6272 36.6551 13.2886 36.2142 12.8835 35.8473C12.038 35.0822 10.7763 35.1378 10.0104 35.9289C9.25007 36.7144 9.19456 37.9296 9.96047 38.7577C10.8374 39.7062 11.7531 40.6233 12.6966 41.5051C13.5106 42.2665 14.6688 42.2998 15.455 41.5292C17.6325 39.3987 19.7803 37.2368 21.906 35.0507C22.4777 34.4635 22.5757 33.6891 22.2519 32.9147C21.93 32.1441 21.3288 31.7161 20.5 31.6439C19.784 31.5809 19.2161 31.8866 18.7184 32.3905C17.1959 33.9318 15.6604 35.4583 14.0286 37.0923L14.0268 37.0941ZM14.2062 51.0995C13.6753 50.5456 13.3404 50.164 12.9723 49.8176C12.1028 49.0006 10.8503 48.9969 10.0437 49.7898C9.22972 50.5901 9.19641 51.8517 10.016 52.7224C10.854 53.6135 11.7198 54.4786 12.606 55.3234C13.5143 56.1886 14.6873 56.1997 15.5771 55.3234C17.6639 53.2633 19.7322 51.1848 21.7857 49.0914C22.6534 48.2077 22.622 46.9257 21.7802 46.1087C20.9662 45.3195 19.7119 45.3232 18.8572 46.1624C17.4734 47.5222 16.1118 48.9024 14.7539 50.2881C14.5466 50.4993 14.4153 50.7846 14.2062 51.0995ZM14.2192 22.2847C13.6642 21.6974 13.3367 21.3102 12.9686 20.9657C12.0824 20.1376 10.8614 20.1394 10.0456 20.9453C9.21307 21.7697 9.20751 23.0331 10.0659 23.9279C10.8799 24.7782 11.7124 25.6119 12.5579 26.4289C13.5162 27.3552 14.6799 27.3626 15.6271 26.4252C17.6769 24.3948 19.71 22.3477 21.7358 20.2913C22.6423 19.3706 22.6442 18.0905 21.7876 17.2568C20.9625 16.4547 19.6897 16.4824 18.8109 17.3513C17.416 18.7315 16.0341 20.1246 14.6614 21.527C14.4874 21.7048 14.4005 21.9679 14.221 22.2828L14.2192 22.2847Z" fill="#443365"/>
</svg>
