<svg width="89" height="70" viewBox="0 0 89 70" fill="none" xmlns="http://www.w3.org/2000/svg">
<g clip-path="url(#clip0_1051_55)">
<path d="M88.9999 17.4699C84.5221 19.257 80.2766 20.9537 75.8336 22.7275C77.0672 23.2035 78.1192 23.6344 79.1926 24.0093C79.7266 24.1955 79.9883 24.4348 79.9669 25.0571C79.9162 26.5411 79.9509 28.0303 79.9509 29.4637H76.7521C76.7521 28.743 76.7174 27.9585 76.7628 27.1793C76.7922 26.6554 76.5866 26.4161 76.114 26.2459C74.616 25.706 73.1288 25.1263 71.4546 24.4933C72.9392 23.8843 74.2716 23.3365 75.7695 22.7222C65.5483 18.8448 55.4981 15.0313 45.3543 11.1805C44.9672 12.1858 44.6147 13.0979 44.2088 14.151C53.2498 17.5843 62.2294 20.9963 71.4119 24.4827C67.7672 25.9321 64.3441 27.291 60.921 28.6526C55.8292 30.6817 50.7426 32.7321 45.6347 34.724C45.1407 34.9154 44.4411 34.9261 43.9498 34.7319C29.8063 29.1286 15.6761 23.4908 1.54054 17.8556C1.29756 17.7598 1.05992 17.6481 0.656738 17.4726C1.02254 17.2891 1.26018 17.1482 1.51117 17.0471C15.6734 11.4013 29.8383 5.75541 44.0166 0.138812C44.4545 -0.0340472 45.0793 -0.0473441 45.5145 0.122856C59.7569 5.76073 73.9885 11.4332 88.2176 17.1003C88.3991 17.1721 88.5727 17.2652 89.0026 17.4699H88.9999Z" fill="#443365"/>
<path d="M70.3573 28.3649C70.3573 33.3459 70.376 38.2205 70.3253 43.0898C70.32 43.51 69.9488 43.994 69.6257 44.3344C67.0037 47.1002 63.7301 48.8367 60.1816 50.0866C54.0911 52.2354 47.7843 52.7274 41.384 52.3737C36.706 52.1157 32.1374 51.2913 27.7905 49.4803C24.9468 48.2942 22.3195 46.7624 20.1139 44.5684C19.4651 43.9249 19.158 43.2467 19.1687 42.2947C19.2195 37.686 19.1928 33.08 19.1928 28.3303C20.7281 28.934 22.1726 29.4951 23.6118 30.0696C30.4312 32.7848 37.2453 35.5133 44.0755 38.1993C44.5054 38.3668 45.1222 38.3455 45.5547 38.1753C53.501 35.0479 61.4312 31.8832 69.3641 28.7292C69.6631 28.6096 69.9702 28.5058 70.3547 28.3649H70.3573Z" fill="#443365"/>
<path d="M25.9266 52.4805C21.1738 52.4805 16.2127 52.4566 11.2517 52.4885C6.70182 52.5177 3.64721 56.8897 5.20923 61.0756C6.09837 63.4584 8.37864 65.1098 10.9286 65.2109C11.3264 65.2269 11.727 65.2189 12.1275 65.2189C34.6765 65.2189 57.2229 65.2189 79.772 65.2189C80.1378 65.2189 80.5062 65.2029 80.8694 65.2322C82.1564 65.3306 83.1203 66.3332 83.139 67.5698C83.1577 68.8463 82.1751 69.8834 80.84 69.9845C80.6077 70.0031 80.3727 69.9951 80.1404 69.9951C57.2923 69.9951 34.4442 69.9978 11.5961 69.9951C6.00225 69.9951 1.60725 66.6363 0.31492 61.416C-1.34589 54.7037 3.74067 47.9569 10.6829 47.7308C13.1795 47.6484 15.6787 47.7016 18.1753 47.7122C18.4556 47.7122 18.784 47.7734 19.011 47.9223C21.358 49.4515 23.6917 51.0045 25.9239 52.4805H25.9266Z" fill="#443365"/>
<path d="M70.838 55.6655C70.4802 57.8276 70.1384 59.8753 69.7806 62.0347H68.6806C49.7014 62.0347 30.7197 62.0347 11.7405 62.0294C11.2466 62.0294 10.7339 62.0054 10.264 61.8672C8.77672 61.4284 7.85553 60.0162 8.01307 58.519C8.17594 56.9872 9.4389 55.7825 11.0063 55.6761C11.3053 55.6549 11.6044 55.6682 11.9061 55.6682C31.1202 55.6682 50.3316 55.6682 69.5457 55.6682H70.838V55.6655Z" fill="#443365"/>
<path d="M73.564 58.7855C74.4291 53.6317 75.2808 48.5469 76.1139 43.5686H80.5837C81.4114 48.5017 82.2685 53.6077 83.139 58.7855H73.564Z" fill="#443365"/>
<path d="M82.346 36.5247C82.362 38.716 80.5784 40.5191 78.3809 40.535C76.1807 40.551 74.3704 38.7745 74.357 36.5859C74.3437 34.3919 76.1219 32.5915 78.3194 32.5782C80.5223 32.5649 82.3273 34.336 82.3433 36.5247H82.346Z" fill="#443365"/>
<path d="M72.1651 47.7563C71.9034 49.3254 71.6471 50.8465 71.3854 52.4182H63.1348C63.7115 52.147 64.1013 52.0087 64.4431 51.7959C66.3309 50.6311 68.248 49.5062 70.0664 48.2403C70.7392 47.7723 71.3347 47.634 72.1624 47.7537L72.1651 47.7563Z" fill="#443365"/>
</g>
<defs>
<clipPath id="clip0_1051_55">
<rect width="89" height="70" fill="white"/>
</clipPath>
</defs>
</svg>
