<svg width="76" height="75" viewBox="0 0 76 75" fill="none" xmlns="http://www.w3.org/2000/svg">
<g clip-path="url(#clip0_1051_56)">
<path d="M75.9998 51.4106C75.0716 53.5356 73.13 52.9349 71.3567 53.0366C71.2735 53.7548 71.1845 54.469 71.1112 55.1832C70.5116 61.1043 69.9178 67.0273 69.3122 72.9485C69.1895 74.1518 68.3087 74.9737 67.0876 74.9815C64.1188 75.005 61.1521 75.003 58.1833 74.9815C56.9978 74.9717 56.0993 74.1655 55.9785 73.0091C55.5154 68.5927 55.076 64.1764 54.6268 59.758C54.5456 58.9577 54.4744 58.1555 54.3695 57.3571C54.32 56.9795 54.3833 56.7525 54.7574 56.5373C57.0414 55.2204 58.1813 53.2323 58.1853 50.624C58.1912 46.4268 58.1715 42.2276 58.1912 38.0304C58.2051 34.9015 57.5163 31.941 56.127 29.1331C56.0419 28.9628 55.9726 28.7828 55.8776 28.5656C57.5579 27.5051 59.4005 26.9787 61.3223 26.6578C55.2383 25.3331 53.3086 20.3023 53.7955 16.8447C54.4387 12.2777 58.1873 9.04514 62.7433 9.08036C67.2004 9.11363 70.8935 12.3931 71.4912 16.9015C71.9484 20.3669 69.993 25.3565 63.7804 26.6441C64.394 26.7595 64.8175 26.8339 65.241 26.918C70.8203 28.0236 75.0438 32.4204 75.8593 37.9638C75.887 38.1517 75.9523 38.3337 75.9998 38.5196V51.4086V51.4106Z" fill="#443365"/>
<path d="M0 38.3748C0.138542 37.7878 0.265208 37.1988 0.415625 36.6137C1.76146 31.3833 6.13146 27.5325 11.5544 26.785C11.7147 26.7635 11.8671 26.7048 12.1283 26.6343C5.89 25.2998 4.03156 20.2299 4.51844 16.8369C5.17156 12.2679 8.91812 9.04517 13.4761 9.08235C17.9312 9.11953 21.6283 12.4088 22.2142 16.9152C22.6674 20.3943 20.6902 25.3742 14.6161 26.6245C15.6255 26.8789 16.5854 27.0609 17.4998 27.3681C18.3983 27.6694 19.2533 28.096 20.041 28.4326C19.4572 30.1036 18.7922 31.6084 18.4221 33.1835C18.0619 34.7137 17.8699 36.3104 17.8402 37.8836C17.763 42.1043 17.8184 46.327 17.8125 50.5496C17.8085 53.1912 18.9466 55.1813 21.2246 56.5666C21.4324 56.6938 21.6382 57.0519 21.6165 57.2808C21.1098 62.5014 20.5754 67.7181 20.0351 72.9367C19.9065 74.1714 19.0178 74.9796 17.7492 74.9874C14.8299 75.005 11.9126 75.005 8.99333 74.9874C7.66135 74.9796 6.81229 74.148 6.67771 72.8076C6.03052 66.3993 5.38333 59.9929 4.73219 53.5846C4.71438 53.4182 4.66885 53.2558 4.62729 53.0484C2.9351 52.8997 0.936146 53.5767 0.00395833 51.4126V38.3767L0 38.3748Z" fill="#443365"/>
<path d="M39.336 3.61772e-06C39.9278 0.146759 40.5275 0.275904 41.1133 0.442228C46.1226 1.86478 49.4812 6.6314 49.1111 11.7737C48.741 16.9121 44.7193 21.1485 39.5517 21.849C33.5549 22.661 27.8786 18.5578 27.0197 12.7893C26.1053 6.64119 30.1408 1.11535 36.2584 0.135019C36.397 0.113495 36.5296 0.0450087 36.6641 -0.00195312C37.5548 -0.00195312 38.4454 -0.00195312 39.336 -0.00195312V3.61772e-06Z" fill="#443365"/>
<path d="M46.3718 52.7283C46.1977 54.7848 46.0314 56.7514 45.8671 58.7159C45.4693 63.4571 45.0794 68.2003 44.6678 72.9395C44.5649 74.1351 43.6683 74.9706 42.4511 74.9804C39.4824 75.0038 36.5136 75.0038 33.5449 74.9804C32.3277 74.9706 31.4311 74.1331 31.3282 72.9395C30.9185 68.1748 30.5266 63.4082 30.1268 58.6416C29.9645 56.7005 29.7963 54.7594 29.6241 52.7283C28.1397 52.7283 26.689 52.7283 25.2383 52.7283C23.1938 52.7283 22.414 51.9612 22.414 49.9517C22.414 45.7779 22.4041 41.6042 22.416 37.4285C22.4378 30.0085 27.6291 23.7841 35.0114 22.3166C35.2271 22.2735 35.4508 22.2618 35.7734 22.2227C35.7734 22.5201 35.7734 22.7784 35.7734 23.0347C35.7734 27.7466 35.7675 32.4564 35.7774 37.1683C35.7813 38.9215 37.3765 40.0369 38.8965 39.3461C39.8544 38.9117 40.2325 38.1192 40.2305 37.0939C40.2206 32.431 40.2265 27.77 40.2265 23.1071C40.2265 22.841 40.2265 22.5768 40.2265 22.0857C41.5446 22.479 42.7935 22.7451 43.9592 23.2147C49.7661 25.5452 53.5483 31.0926 53.5819 37.2837C53.6057 41.6277 53.5918 45.9736 53.5839 50.3195C53.5819 51.8321 52.6695 52.7205 51.1298 52.7263C49.5721 52.7342 48.0165 52.7263 46.3718 52.7263V52.7283Z" fill="#443365"/>
</g>
<defs>
<clipPath id="clip0_1051_56">
<rect width="76" height="75" fill="white"/>
</clipPath>
</defs>
</svg>
