<svg width="83" height="70" viewBox="0 0 83 70" fill="none" xmlns="http://www.w3.org/2000/svg">
<g clip-path="url(#clip0_1051_57)">
<path d="M82.5645 41.1683C82.2208 43.8129 80.6344 45.6816 78.7963 47.4505C75.6757 50.4519 72.6522 53.5506 69.5415 56.562C67.4718 58.5679 66.3859 60.9031 66.5827 63.8372C66.6998 65.6061 66.6425 67.3874 66.6599 69.1638C66.6624 69.4258 66.6599 69.6878 66.6599 69.9971H47.7019C47.672 69.84 47.6172 69.6878 47.6172 69.5381C47.6396 63.2683 47.5848 56.9961 47.7268 50.7289C47.8264 46.3478 49.2609 42.4008 52.668 39.4743C53.9681 38.359 55.5172 37.416 57.1087 36.7872C59.3003 35.919 61.0861 34.6117 62.6999 32.9575C64.142 31.4781 65.5915 29.9936 67.1456 28.6363C68.2962 27.6309 69.7183 27.0321 71.2998 27.1893C74.4977 27.5061 76.3905 30.6822 75.1327 33.7484C74.7069 34.7863 74.007 35.7718 73.2374 36.5976C71.3297 38.641 69.2924 40.5621 67.3348 42.558C65.9601 43.9601 65.9277 45.7116 67.1879 47.0838C67.2377 47.0638 67.3 47.0563 67.3324 47.0214C70.3957 43.9252 73.5886 40.9438 76.4727 37.6929C78.7291 35.1481 79.4289 32.0294 78.0641 28.7411C77.0355 26.2687 75.1203 24.7667 72.4977 24.1929C72.2661 24.143 72.0395 24.0681 71.773 23.9958C71.9349 23.3371 72.0345 22.6984 72.2462 22.0972C73.23 19.3053 73.0108 16.3613 73.3769 13.4922C73.7331 10.7028 74.2361 7.94097 75.8849 5.58327C76.4204 4.81733 77.1675 4.0938 77.9769 3.64222C79.7353 2.66172 81.6181 3.46758 82.3728 5.35374C82.4325 5.50343 82.4998 5.64814 82.562 5.79534V41.1683H82.5645Z" fill="#443365"/>
<path d="M34.9225 69.9997H15.9146C15.9146 69.6978 15.9146 69.4384 15.9146 69.1789C15.9346 67.2952 15.8922 65.4066 15.9918 63.5279C16.1338 60.8384 15.1426 58.6578 13.2647 56.8066C9.78042 53.3686 6.32354 49.9031 2.81934 46.4876C0.899133 44.6139 -0.00742584 42.3909 4.58003e-05 39.7064C0.0299324 28.7237 0.0149891 17.7411 0.010008 6.75596C0.010008 5.35382 0.480721 4.21115 1.7783 3.56247C3.05097 2.92626 4.2539 3.21817 5.30989 4.06893C5.84536 4.50056 6.33849 5.02449 6.72203 5.59583C8.30602 7.96101 8.90375 10.673 9.17771 13.4424C9.52638 16.9677 9.55378 20.5354 10.8663 23.8537C9.77295 24.2778 8.71945 24.5448 7.80791 25.0637C4.34356 27.0272 2.89406 31.1413 4.46061 34.8113C5.03842 36.1686 5.85781 37.5059 6.85901 38.5787C9.51891 41.4279 12.3357 44.1299 15.0928 46.8893C15.1675 46.9641 15.2571 47.0215 15.3368 47.0864C16.6643 45.8264 16.6244 43.9602 15.2123 42.5232C13.2522 40.5272 11.215 38.6061 9.30971 36.5603C8.54013 35.7345 7.84776 34.7415 7.42935 33.6986C6.19652 30.6249 8.1267 27.4563 11.3271 27.1769C12.8762 27.0422 14.241 27.6584 15.414 28.604C16.4775 29.4622 17.4488 30.4353 18.4276 31.3933C19.3117 32.2566 20.1336 33.1847 21.0178 34.0504C22.1435 35.1532 23.4361 35.9865 24.9329 36.5279C30.6412 38.5937 33.742 42.7851 34.666 48.6906C34.8478 49.8557 34.9275 51.0483 34.9324 52.2284C34.9648 57.9343 34.9574 63.6427 34.9598 69.3485C34.9598 69.5332 34.9374 69.7203 34.92 69.9947L34.9225 69.9997Z" fill="#443365"/>
<path d="M41.3159 38.1915C41.0868 37.9795 40.9274 37.8423 40.7779 37.6926C34.9824 31.8894 29.1795 26.0937 23.3989 20.2755C19.6755 16.5306 18.7117 11.209 20.8909 6.68817C23.902 0.440891 31.4434 -1.87939 37.463 1.6634C38.8353 2.47176 40.0358 3.5795 41.5674 4.74214C41.7044 4.54753 41.9062 4.15333 42.2025 3.86143C46.0181 0.104076 51.3603 -0.993689 55.9279 1.0247C63.0858 4.18577 65.1629 13.7787 59.8481 19.532C57.0935 22.5135 54.1472 25.3153 51.2831 28.1919C47.9831 31.5076 44.6781 34.8184 41.3159 38.1915Z" fill="#443365"/>
</g>
<defs>
<clipPath id="clip0_1051_57">
<rect width="82.5641" height="70" fill="white"/>
</clipPath>
</defs>
</svg>
