<svg width="70" height="80" viewBox="0 0 70 80" fill="none" xmlns="http://www.w3.org/2000/svg">
<g clip-path="url(#clip0_1051_58)">
<path d="M41.8884 0C43.4368 0.258554 44.9935 0.481944 46.5336 0.79014C47.5175 0.986641 48.4764 1.30518 49.4955 1.58028C49.4955 3.55149 49.5329 5.48134 49.4768 7.40912C49.454 8.21167 48.7794 8.65017 48.0862 8.78669C46.8263 9.03283 45.5415 9.22313 44.2608 9.27484C41.1038 9.40515 38.3931 11.455 37.6375 14.4997C37.4175 15.3871 37.3885 16.3365 37.3885 17.2569C37.3885 18.6862 36.9443 19.6935 35.5827 20.4506C32.3177 22.2687 30.9541 24.7963 30.6718 29.047C30.5244 28.9787 30.3854 28.9332 30.267 28.8567C28.8224 27.9031 27.3736 26.9558 25.9394 25.9878C24.6961 25.148 24.4242 24.1179 25.0573 22.7879C27.1225 18.4525 24.914 13.722 20.2584 12.5099C18.8865 12.152 17.5083 11.8087 15.8789 11.395C17.2177 10.0464 18.3759 8.74532 19.671 7.59734C24.3682 3.43773 29.8644 1.00319 36.0933 0.206843C36.5748 0.14479 37.0564 0.0682582 37.5379 0C38.9888 0 40.4375 0 41.8884 0Z" fill="#443365"/>
<path d="M59.6861 58.82C60.5682 60.0838 61.4234 61.3063 62.32 62.5887C57.5648 65.9003 52.3758 68.0101 46.7322 69.065V74.6042H60.6429V79.2106H18.7903V74.6559H32.6595V69.1891C16.2124 65.2632 5.2407 55.4961 1.14552 38.9528C-1.62335 27.7688 0.713792 17.288 7.17517 7.64087C8.49526 8.55925 9.73647 9.42179 10.9777 10.2843C0.514533 25.3839 4.20912 44.188 15.0646 54.9024C26.2231 65.9168 44.8849 68.9615 59.6861 58.82Z" fill="#443365"/>
<path d="M31.8169 48.7528C33.0872 50.0352 34.2786 51.2908 35.5281 52.4863C36.8109 53.7129 37.5311 55.107 37.4169 56.9438C37.3505 58.0111 37.5456 59.095 37.6349 60.3567C36.1799 60.1395 34.7353 60.0423 33.3529 59.6969C21.3413 56.6997 13.5246 49.2865 10.3281 37.3516C8.37706 30.0666 9.40241 22.9864 12.8292 16.2536C13.1178 15.6848 13.4104 15.5462 14.0269 15.7158C15.6209 16.1564 17.2358 16.5163 18.8381 16.9217C20.9802 17.4637 21.7025 18.9922 20.7622 20.9655C19.2989 24.0392 20.1603 27.601 22.979 29.5619C26.1609 31.7751 29.4238 33.8684 32.6347 36.0402C32.998 36.2864 33.3238 36.6587 33.5335 37.0455C34.2309 38.3383 34.8515 39.6724 35.5302 40.9734C36.3252 42.4958 36.182 43.9354 35.0902 45.2199C34.1229 46.3596 33.0499 47.4104 32.0245 48.5025C31.956 48.5749 31.8958 48.6577 31.8169 48.7507V48.7528Z" fill="#443365"/>
<path d="M68.9476 38.0823C67.8351 42.1136 66.0106 45.6879 63.3517 49.0429C62.0005 47.9342 60.6244 46.8979 59.3603 45.7417C58.1606 44.6454 57.0959 43.4064 55.9335 42.2667C55.6927 42.0288 55.2859 41.8137 54.9642 41.8241C51.9774 41.9254 49.9537 40.6016 48.5132 37.9975C46.5455 34.4418 43.3761 32.6671 39.3058 32.5203C38.3759 32.4872 37.444 32.5161 36.348 32.5161C36.0305 31.3847 35.578 30.2698 35.4223 29.1156C35.1421 27.0244 36.0678 25.3759 37.9255 24.4596C40.9476 22.9683 41.9895 20.4572 42.0331 17.3214C42.0331 17.218 42.0435 17.1146 42.0352 17.0112C41.8546 14.8704 43.0772 13.8361 45.0884 13.8961C46.7987 13.9458 48.4904 13.6562 50.0969 13.0026C52.762 11.9187 54.1568 9.87923 54.1692 7.02066C54.1734 5.94715 54.1692 4.87363 54.1692 3.67188C57.65 5.57483 60.5434 7.97421 63.0404 10.9569C61.5626 12.7688 60.1096 14.5787 58.6235 16.3638C56.8551 18.488 55.041 20.5751 53.2767 22.7014C51.6702 24.6396 51.2841 26.9603 51.3028 29.3804C51.3132 30.8676 51.6059 32.3072 52.3219 33.6269C53.5652 35.9146 55.5412 36.9943 58.1212 37.166C61.5812 37.3956 65.0351 37.7017 68.491 37.9789C68.6155 37.9892 68.7359 38.0326 68.9476 38.0823Z" fill="#443365"/>
<path d="M42.3365 60.2748C42.2348 59.0006 42.0335 57.8464 42.0729 56.7005C42.1705 53.8295 41.114 51.4757 39.0965 49.4982C38.8391 49.2459 38.5319 49.0453 38.2061 48.7867C41.4606 45.0304 41.3485 41.1976 38.7499 37.1663C41.0995 37.1497 42.8077 37.9626 44.0842 39.6608C44.3602 40.029 44.574 40.4489 44.8023 40.8501C46.5625 43.9383 49.1902 45.7689 52.7167 46.3439C53.1359 46.4121 53.5822 46.6521 53.9018 46.9375C55.9546 48.7784 57.9763 50.6545 60.0456 52.5554C55.1098 56.9839 49.2359 59.588 42.3365 60.2727V60.2748Z" fill="#443365"/>
<path d="M65.8491 14.9258C69.1763 20.7257 70.4901 26.8255 69.8384 33.432C68.6366 33.3203 67.4888 33.2024 66.341 33.1135C63.6344 32.9046 60.9299 32.6977 58.2212 32.5198C57.2581 32.4557 56.5607 32.04 56.3054 31.1175C55.7097 28.9684 55.745 26.9558 57.337 25.1128C60.0539 21.9709 62.663 18.7379 65.3198 15.5422C65.4651 15.3664 65.6166 15.1967 65.8491 14.9258Z" fill="#443365"/>
</g>
<defs>
<clipPath id="clip0_1051_58">
<rect width="70" height="79.2105" fill="white"/>
</clipPath>
</defs>
</svg>
