<svg width="94" height="55" viewBox="0 0 94 55" fill="none" xmlns="http://www.w3.org/2000/svg">
<g clip-path="url(#clip0_1084_64)">
<path d="M94.0002 41.8433C93.5302 42.8523 92.7371 43.2059 91.638 43.1936C88.0004 43.1543 84.3603 43.1838 80.7227 43.1764C79.4277 43.1764 78.5783 42.462 78.2209 41.1926C75.4695 31.4236 71.9469 21.9344 67.9764 12.6048C67.7022 11.9591 67.3987 11.3134 67.0315 10.7192C66.1649 9.31977 66.5811 8.37699 68.2016 7.73864C71.8784 6.2901 75.7191 5.32768 79.6383 4.86856C83.5794 4.40699 87.5524 4.23268 91.5082 3.90859C92.6318 3.8153 93.4592 4.20812 94.0026 5.20001V41.8457L94.0002 41.8433Z" fill="white"/>
<path d="M0 1.51237C0.577708 0.19395 1.57646 -0.11049 2.95953 0.0319094C8.12463 0.564679 13.3265 0.854388 18.3545 2.27102C19.7155 2.65402 21.0056 3.33164 22.2907 3.9528C23.4241 4.5003 23.6591 5.49955 23.4364 6.67557C22.8097 9.98267 22.3789 13.3413 21.5417 16.5944C19.8355 23.2332 17.9212 29.8179 16.0755 36.4198C15.2823 39.2531 15.2383 39.2654 12.313 39.2654C9.04016 39.2654 5.76974 39.2335 2.49687 39.2826C1.37818 39.2997 0.54099 38.9732 0 37.9764L0 1.51237Z" fill="white"/>
<path d="M26.6797 11.8071H34.3466C34.0871 12.1214 33.9084 12.3424 33.7248 12.556C31.6123 15.0259 29.8669 17.7069 29.0983 20.9182C28.4422 23.6656 29.2647 26.0814 31.3601 27.0439C34.3172 28.4016 37.3575 28.6029 40.2167 26.7787C41.3868 26.0323 42.3611 24.9791 43.4284 24.0682C43.6315 23.8939 43.82 23.6582 44.0575 23.5772C45.4259 23.123 46.804 22.7056 48.121 22.0673C48.1773 22.0771 48.2508 22.0673 48.2875 22.1016C54.2922 27.0439 60.3386 31.937 66.265 36.9701C67.8757 38.3401 69.1731 40.1004 70.5146 41.7625C71.1535 42.5556 71.4546 43.5499 71.058 44.6204C70.495 46.145 68.7496 46.5477 67.6064 45.4035C64.101 41.8878 60.5956 38.3744 57.0951 34.8562C56.5345 34.2915 55.8907 33.7194 55.1 34.0386C54.5125 34.2768 53.9422 34.8071 53.6092 35.357C53.1809 36.0666 53.5578 36.7884 54.1062 37.3457C56.0229 39.2853 57.9494 41.215 59.8784 43.1423C61.587 44.8511 63.2981 46.5526 64.9921 48.2393C64.0472 49.7983 62.505 50.498 60.882 50.0855C60.5001 49.9873 60.1354 49.6804 59.8416 49.3883C56.8234 46.3832 53.8198 43.3658 50.8162 40.3435C50.2311 39.7542 49.602 39.2902 48.711 39.521C47.1467 39.9261 46.7159 41.7012 47.9129 42.9189C49.8419 44.888 51.8027 46.83 53.7488 48.7818C54.6153 49.6485 55.5088 50.4906 56.3264 51.4015C56.5296 51.6274 56.6349 52.1233 56.5369 52.4057C55.805 54.4655 53.619 54.9418 52.0891 53.4074C49.6436 50.9571 47.2128 48.4897 44.7478 46.0591C43.5532 44.8831 41.8519 45.2906 41.399 46.8128C41.1493 47.6574 41.5165 48.2957 42.0893 48.8702C43.8445 50.6257 45.5948 52.386 47.3426 54.1464C47.5506 54.3551 47.744 54.5785 48.0745 54.9369C45.6829 55.0474 43.6658 54.4361 41.9351 53.1078C36.3025 48.7818 30.6869 44.4313 25.1351 40.0022C23.5415 38.7304 22.1804 37.1665 20.746 35.7032C20.5673 35.5215 20.4693 35.0919 20.5501 34.8488C22.9858 27.449 24.9172 19.9165 26.5132 12.2957C26.5451 12.1484 26.6063 12.0085 26.6724 11.8047L26.6797 11.8071Z" fill="white"/>
<path d="M73.8048 38.5067C73.6897 38.4232 73.5478 38.3619 73.4596 38.2538C69.7731 33.8566 65.3032 30.3163 60.9214 26.6777C57.695 23.9992 54.5544 21.2126 51.3623 18.4898C50.4125 17.6796 49.284 17.4439 48.1114 17.8416C47.0735 18.1952 46.0993 18.7279 45.0687 19.1109C44.4494 19.3442 43.7468 19.3687 43.1397 19.6241C42.4959 19.8966 41.8521 20.2526 41.3356 20.7142C40.7285 21.2592 40.3075 22.0105 39.7175 22.5801C38.1484 24.0925 36.3296 24.3625 34.2881 23.6383C33.3823 23.3166 33.0568 22.7372 33.2795 21.8902C33.5194 20.9769 33.7813 20.0414 34.2244 19.2165C36.5353 14.9151 39.9746 11.6939 44.1262 9.2412C46.6011 7.78038 49.2571 8.00134 51.8421 8.94658C55.0268 10.1103 58.1699 11.387 61.3327 12.6072C61.9299 12.838 62.5223 13.1424 63.1466 13.2407C64.3999 13.4371 64.9947 14.2104 65.4084 15.3226C68.0106 22.3247 70.6421 29.317 73.2589 36.3142C73.5135 36.9943 73.7387 37.6842 73.9761 38.3717C73.9198 38.4159 73.8611 38.4601 73.8048 38.5067Z" fill="white"/>
</g>
<defs>
<clipPath id="clip0_1084_64">
<rect width="94" height="54.9538" fill="white"/>
</clipPath>
</defs>
</svg>
