<svg width="74" height="56" viewBox="0 0 74 56" fill="none" xmlns="http://www.w3.org/2000/svg">
<g clip-path="url(#clip0_1097_57)">
<path d="M0 48.1362C0 34.5488 0 20.9628 0 7.37546C0.0491406 7.21936 0.11418 7.06616 0.145977 6.90573C0.942344 2.90077 4.37641 0.0115897 8.44063 0.00869911C27.4812 -0.00286339 46.5217 -0.0043087 65.5608 0.013035C68.3589 0.0159257 70.6107 1.21987 72.3249 3.43698C73.2282 4.60624 73.6488 5.9735 74 7.37401V48.1347C73.9509 48.2908 73.8858 48.444 73.854 48.603C73.0562 52.6123 69.6337 55.4971 65.5608 55.5C46.5217 55.513 27.4812 55.5145 8.44207 55.4957C5.64539 55.4928 3.39504 54.2831 1.67801 52.0717C0.768906 50.9054 0.356992 49.5338 0 48.1362ZM23.1279 43.186C24.0905 43.186 25.053 43.186 26.0156 43.186C28.808 43.186 31.5989 43.1932 34.3912 43.1831C36.0707 43.1773 36.9899 42.2552 37 40.5974C37.0029 40.213 37.0014 39.8271 37 39.4426C36.9798 34.6413 33.3347 30.9023 28.5377 30.8387C24.9287 30.791 21.3169 30.7924 17.708 30.8415C14.8607 30.8806 12.5496 32.0758 10.8557 34.3797C9.75441 35.8785 9.32371 37.5883 9.23121 39.4469C9.06934 42.6628 10.2458 43.2785 12.9486 43.2076C16.3393 43.1195 19.7357 43.186 23.1279 43.186ZM30.8155 20.0248C30.8039 15.7698 27.3048 12.2881 23.0831 12.3329C18.8454 12.3777 15.4417 15.8031 15.433 20.0349C15.4244 24.2928 18.8772 27.7573 23.1279 27.7544C27.3786 27.7515 30.8271 24.2856 30.8141 20.0248H30.8155ZM53.9087 18.5058C56.675 18.5058 59.4414 18.5101 62.2077 18.5044C63.6862 18.5015 64.7283 17.5562 64.7471 16.2251C64.7645 14.8622 63.7108 13.8837 62.199 13.8823C56.7141 13.8794 51.2291 13.8794 45.7441 13.8823C44.202 13.8823 43.1816 14.8116 43.183 16.1962C43.1845 17.5707 44.215 18.5029 45.7528 18.5058C48.4714 18.5101 51.1901 18.5058 53.9073 18.5058H53.9087ZM53.9738 30.8271V30.8228C56.8123 30.8228 59.6509 30.8372 62.4881 30.8155C63.6169 30.8069 64.5173 30.0018 64.7182 28.9236C64.909 27.9018 64.3222 26.7903 63.3278 26.416C62.9347 26.2686 62.4852 26.2122 62.0603 26.2108C56.6476 26.1978 51.2363 26.2007 45.8236 26.2064C45.4898 26.2064 45.1472 26.2368 44.8249 26.3206C43.8941 26.5634 43.2336 27.4147 43.1859 28.3758C43.118 29.7648 44.0893 30.8083 45.5288 30.8199C48.3428 30.8401 51.1568 30.8257 53.9709 30.8257L53.9738 30.8271ZM53.9766 38.5667V38.5624C51.258 38.5624 48.5408 38.5581 45.8222 38.5667C45.4652 38.5667 45.0923 38.5798 44.7555 38.6809C43.7467 38.9844 43.1368 39.9196 43.1874 41.0035C43.2351 42.0167 43.952 43.0602 44.9622 43.0703C50.9704 43.1325 56.9786 43.1007 62.9867 43.0833C63.2079 43.0833 63.4434 42.9388 63.6443 42.8145C64.5043 42.287 64.9234 41.2651 64.6835 40.3271C64.419 39.2995 63.5706 38.5798 62.491 38.5711C59.6524 38.5494 56.8138 38.5639 53.9766 38.5639V38.5667Z" fill="white"/>
</g>
<defs>
<clipPath id="clip0_1097_57">
<rect width="74" height="55.5116" fill="white"/>
</clipPath>
</defs>
</svg>
