<svg width="81" height="69" viewBox="0 0 81 69" fill="none" xmlns="http://www.w3.org/2000/svg">
<g clip-path="url(#clip0_923_591)">
<path d="M0 22.3796C0.370478 20.618 0.736746 18.8603 1.10722 17.0987C1.22931 16.5128 1.34298 15.9269 1.4777 15.2491C3.02276 15.4903 4.52152 15.7048 6.01185 15.9729C6.5381 16.0686 6.76965 15.9729 7.03066 15.5133C7.70426 14.3223 8.45785 13.1658 9.24511 12.0361C9.52718 11.634 9.51455 11.4043 9.18196 11.0558C8.17578 10.0142 7.21169 8.93806 6.18025 7.81602C8.33576 6.16933 10.4534 4.55328 12.6426 2.87979C13.6193 3.94056 14.6044 4.96304 15.5264 6.03147C15.9221 6.48718 16.2168 6.54462 16.8273 6.29953C18.0945 5.78255 19.4164 5.34599 20.751 5.00133C21.3783 4.84049 21.5256 4.61072 21.513 4.07459C21.4751 2.73427 21.5004 1.39011 21.5004 0H29.9329C29.9329 1.37096 29.9624 2.73044 29.9203 4.08991C29.9035 4.64136 30.0761 4.84432 30.6865 5.00516C32.0464 5.36896 33.3809 5.82468 34.6818 6.34166C35.2417 6.56377 35.5028 6.47569 35.8522 6.07742C36.791 5.01282 37.7719 3.98268 38.7865 2.88745C40.9378 4.5303 43.0555 6.14252 45.2446 7.81602C44.0911 9.0721 42.967 10.2937 41.9314 11.4196C42.8323 12.9207 43.6701 14.353 44.5626 15.7622C44.6637 15.9192 45.0889 16.0035 45.3373 15.969C46.8444 15.7584 48.3432 15.5018 49.9514 15.2453C50.444 17.7766 50.9239 20.2428 51.4207 22.7932C49.8504 23.046 48.3263 23.2796 46.8065 23.5553C46.5582 23.6012 46.1835 23.8119 46.1498 23.9918C45.8467 25.5887 45.6067 27.1971 45.3331 28.8898C46.7097 29.6174 48.2085 30.4101 49.783 31.2411C48.3727 33.4584 46.9834 35.6489 45.5688 37.8815C44.0027 37.0619 42.4955 36.2731 41.0978 35.5416C39.6243 36.6062 38.2013 37.6249 36.8036 38.6742C36.6773 38.7699 36.6647 39.1031 36.7321 39.2831C37.2457 40.6387 37.7888 41.9829 38.3487 43.3883C35.7132 44.2614 33.1199 45.1231 30.4297 46.0153C29.9414 44.7937 29.4109 43.5989 28.9899 42.3735C28.7457 41.665 28.4005 41.4467 27.5501 41.5157C26.1903 41.6229 24.8136 41.5654 23.4454 41.5003C22.9444 41.4774 22.7591 41.5999 22.6076 42.0097C22.1108 43.3232 21.5677 44.6214 21.0078 46.0077C18.3723 45.1384 15.7664 44.2767 13.0888 43.3921C13.6993 41.8526 14.2845 40.3745 14.857 38.9346C13.3751 37.7972 11.91 36.679 10.3902 35.5148C8.95884 36.2616 7.45587 37.0466 5.8645 37.8815C4.45416 35.6603 3.06486 33.4737 1.6461 31.2411C3.0396 30.5097 4.35312 29.8012 5.68347 29.1272C6.12131 28.9051 6.21814 28.6983 6.10447 28.2196C5.77609 26.8908 5.55296 25.539 5.3172 24.191C5.25826 23.8578 5.21616 23.6127 4.76149 23.5476C3.1659 23.3179 1.58295 23.0613 0 22.8124C0 22.6668 0 22.5251 0 22.3796ZM25.6809 32.8227C31.6043 32.8533 36.4458 28.4647 36.4668 23.0498C36.4879 17.6502 31.6969 13.2616 25.7314 13.2233C19.8374 13.1888 14.9412 17.6157 14.916 23C14.8907 28.3728 19.7322 32.792 25.6809 32.8227Z" fill="white"/>
<path d="M63.5455 36.8364C65.2927 37.8321 66.943 38.7741 68.6522 39.7507C68.0544 40.62 67.4987 41.4586 66.9051 42.2743C66.6736 42.5922 66.7072 42.7875 66.9809 43.0747C67.6292 43.764 68.2523 44.4839 68.8249 45.2269C69.0901 45.5677 69.3174 45.629 69.7384 45.4949C70.7278 45.1771 71.734 44.9052 72.7991 44.5988C73.4221 46.3451 74.0284 48.0454 74.6557 49.8069C73.5737 50.1325 72.5465 50.4158 71.5445 50.7605C71.3298 50.8333 71.0814 51.1281 71.0646 51.3349C70.9846 52.2387 71.0225 53.1539 70.9341 54.0577C70.8877 54.5402 71.073 54.7355 71.5361 54.8925C72.4707 55.2065 73.3885 55.5665 74.4157 55.9456C73.6579 57.6536 72.9127 59.3233 72.1507 61.0351C71.1067 60.6521 70.1215 60.3151 69.1617 59.9322C68.7575 59.7713 68.5259 59.8096 68.2355 60.1351C67.604 60.8397 66.9304 61.5137 66.2273 62.1648C65.9368 62.4328 65.8863 62.632 66.0884 62.9613C66.6062 63.7961 67.0819 64.6501 67.6292 65.5922C65.8652 66.4461 64.1139 67.2925 62.2994 68.1732C61.7816 67.281 61.2722 66.4461 60.8048 65.5922C60.6112 65.2322 60.3838 65.1173 59.9376 65.1939C58.8009 65.3892 57.6558 65.5347 56.4096 65.7147C56.1655 66.7219 55.9002 67.8094 55.6097 69.0119C53.6353 68.6328 51.6987 68.2575 49.72 67.8745C49.9894 66.7104 50.242 65.6151 50.482 64.5582C49.3832 63.9033 48.3391 63.2638 47.2656 62.6664C47.1182 62.586 46.7688 62.6741 46.5962 62.789C45.7289 63.3672 44.8869 63.9838 43.9986 64.6118C42.7567 63.1643 41.5568 61.7703 40.2896 60.2921C41.1274 59.6909 41.9315 59.0858 42.7735 58.5306C43.1861 58.2587 43.2703 58.0251 43.0724 57.5847C42.7272 56.8111 42.4199 56.0146 42.2178 55.1989C42.0831 54.6513 41.7968 54.5134 41.2453 54.5287C40.2517 54.5555 39.2582 54.5364 38.353 54.5364V49.0525C39.5402 49.0525 40.5843 49.0257 41.6284 49.064C42.1083 49.0832 42.3062 48.9338 42.462 48.5279C42.7735 47.716 43.1229 46.9118 43.5355 46.1383C43.7713 45.7017 43.6786 45.4643 43.2955 45.1732C42.5125 44.5758 41.7673 43.9325 40.9632 43.2738C42.3272 41.899 43.645 40.5702 45.009 39.1954C45.9689 39.9804 46.8824 40.7272 47.775 41.4548C48.9453 40.9148 50.0736 40.417 51.1724 39.8617C51.3324 39.7813 51.4208 39.4366 51.3998 39.226C51.2903 38.2763 51.1261 37.3343 50.9745 36.3156C52.9911 36.0629 54.9361 35.8216 56.9485 35.5688C57.0959 36.5301 57.2516 37.4032 57.3527 38.2801C57.4116 38.8086 57.6053 39.0614 58.2494 39.1265C59.1587 39.2222 60.0555 39.4481 60.9438 39.6588C61.3648 39.7583 61.6047 39.7047 61.8363 39.3409C62.3625 38.5137 62.9477 37.721 63.554 36.8517L63.5455 36.8364ZM48.7643 52.4072C48.8064 56.229 52.3302 59.3233 56.5949 59.2811C60.7964 59.239 64.1981 56.0337 64.1602 52.1583C64.1223 48.3479 60.5817 45.2422 56.3254 45.2766C52.1323 45.3149 48.7264 48.5279 48.7685 52.4033L48.7643 52.4072Z" fill="white"/>
<path d="M56.6409 28.3C55.7231 28.5719 54.8264 28.8361 53.8412 29.1272C53.3444 27.7639 52.8561 26.4312 52.3467 25.0334C53.0371 24.819 53.6644 24.5624 54.3212 24.4322C55.0158 24.2905 55.3189 24.0109 55.1674 23.3484C55.1084 23.0957 55.1295 22.82 55.1463 22.5596C55.2081 21.6328 54.7744 21.001 53.8454 20.664C53.4329 20.5146 53.0203 20.3614 52.5109 20.1699C53.0918 18.8373 53.656 17.5352 54.258 16.1566C55.0453 16.4362 55.7862 16.7272 56.5482 16.957C56.7672 17.0221 57.1503 16.9991 57.285 16.8689C57.9417 16.2485 58.5396 15.5784 59.1879 14.8967C58.7543 14.1461 58.2996 13.3687 57.8154 12.5301C59.2132 11.8446 60.573 11.1783 61.9917 10.4851C62.3959 11.1591 62.7916 11.7718 63.1411 12.4114C63.3305 12.7599 63.5073 12.9092 63.9831 12.7982C64.6693 12.6373 65.3808 12.5531 66.0881 12.5148C66.5596 12.488 66.7195 12.3003 66.7911 11.9212C66.9258 11.2395 67.0942 10.5656 67.2668 9.79199C68.8287 10.083 70.3359 10.3626 71.9189 10.6536C71.7463 11.4234 71.5526 12.1395 71.4474 12.8671C71.4179 13.0815 71.5652 13.4185 71.7547 13.5372C72.4914 13.993 73.2787 14.3836 74.146 14.8508C74.8532 14.3491 75.6321 13.7977 76.4614 13.2041C77.4466 14.3376 78.3938 15.4252 79.4126 16.597C78.7854 17.0489 78.196 17.5123 77.5602 17.9182C77.1308 18.1901 77.0845 18.4505 77.2866 18.8794C77.556 19.45 77.6865 20.0704 77.9518 20.641C78.0444 20.8439 78.3433 21.0737 78.5749 21.1005C79.379 21.1886 80.1957 21.1886 80.9914 21.2231V25.4662C80.1283 25.4662 79.3495 25.4968 78.5706 25.4547C78.0949 25.4279 77.8676 25.5389 77.7244 25.9793C77.5224 26.5959 77.1771 27.1741 76.9666 27.7868C76.8951 27.9936 76.9582 28.3459 77.114 28.4953C77.6739 29.0276 78.3054 29.4986 78.9664 30.0424C77.9013 31.1338 76.874 32.1831 75.8089 33.2707C75.0343 32.6465 74.3059 32.0644 73.6029 31.5015C72.7272 31.915 71.881 32.2942 71.0642 32.7192C70.9001 32.8035 70.7611 33.0869 70.778 33.263C70.8495 34.0213 70.9843 34.7718 71.1021 35.5684C69.5276 35.779 68.0246 35.9781 66.4164 36.1926C66.2649 35.308 66.1133 34.4463 65.9575 33.5387C64.9177 33.3358 63.8736 33.1328 62.7622 32.9184C62.2654 33.6383 61.7476 34.3851 61.1876 35.2008C59.8573 34.4578 58.5396 33.7226 57.1376 32.9413C57.5586 32.3133 57.946 31.7006 58.3796 31.1108C58.6322 30.7662 58.6743 30.5249 58.3206 30.1841C57.7312 29.6097 57.2218 28.9625 56.6324 28.2962L56.6409 28.3ZM72.7524 23.0459C72.7777 20.0129 70.1423 17.5046 66.909 17.474C63.4063 17.4433 60.6698 19.8061 60.6488 22.8812C60.6277 26.0367 63.2505 28.4723 66.6901 28.4876C70.037 28.503 72.7272 26.0865 72.7524 23.0421V23.0459Z" fill="white"/>
</g>
<defs>
<clipPath id="clip0_923_591">
<rect width="81" height="69" fill="white"/>
</clipPath>
</defs>
</svg>
