<svg width="38" height="40" viewBox="0 0 38 40" fill="none" xmlns="http://www.w3.org/2000/svg">
<g clip-path="url(#clip0_1083_61)">
<path d="M26.5629 21.6592C20.0991 23.1096 16.5005 30.6606 20.1881 36.7005C19.2106 36.821 18.2692 36.9593 17.3229 37.0476C13.0859 37.4448 9.02199 36.6158 5.05908 35.2263C3.45276 34.6634 1.90174 33.9442 0.32548 33.2977C0.11988 33.213 -0.0111748 33.1152 -0.000353776 32.8445C0.173985 28.6795 1.2116 24.7841 3.80865 21.4314C6.82291 17.5408 10.8183 15.5263 15.7984 15.7446C20.2867 15.9426 23.8228 18.0155 26.5256 21.5364C26.5425 21.5578 26.5437 21.5912 26.5629 21.6568V21.6592Z" fill="#443365" fill-opacity="0.6"/>
<path d="M28.7868 40.0008C24.0375 40.0044 20.1708 36.1519 20.166 31.4109C20.1612 26.7236 24.0592 22.8556 28.7832 22.8604C33.5492 22.8651 37.4424 26.6842 37.4484 31.362C37.4544 36.1603 33.607 39.9984 28.7868 40.0008ZM27.2358 35.3087C26.4963 34.5692 25.817 33.8548 25.0932 33.1881C24.9008 33.0115 24.5534 32.8708 24.3081 32.909C23.7201 32.9984 23.5951 33.6902 24.0604 34.1601C24.9225 35.0284 25.7954 35.8872 26.6647 36.7483C27.2502 37.328 27.6542 37.2922 28.1099 36.6159C29.9386 33.8977 31.765 31.1771 33.5913 28.4578C33.6575 28.3588 33.726 28.2598 33.7741 28.1524C33.9304 27.803 33.8342 27.5048 33.5336 27.2889C33.2258 27.0671 32.9072 27.1064 32.6331 27.3593C32.5152 27.4678 32.4299 27.6145 32.3385 27.7505C30.7346 30.1359 29.1331 32.5213 27.5291 34.9068C27.4438 35.0344 27.3488 35.156 27.237 35.3111L27.2358 35.3087Z" fill="#443365" fill-opacity="0.6"/>
<path d="M15.1337 14.2863C11.154 14.2899 7.9209 11.0887 7.9209 7.14316C7.9209 3.19647 11.1528 -0.00357514 15.1337 2.99775e-06C19.0918 0.00358114 22.3165 3.19647 22.3249 7.1205C22.3333 11.0696 19.1099 14.2815 15.1337 14.2863Z" fill="#443365" fill-opacity="0.6"/>
</g>
<defs>
<clipPath id="clip0_1083_61">
<rect width="37.4468" height="40" fill="white"/>
</clipPath>
</defs>
</svg>
