<svg width="40" height="40" viewBox="0 0 40 40" fill="none" xmlns="http://www.w3.org/2000/svg">
<path d="M0 6.63973C0.676042 3.79467 2.85 2.43788 5.29792 1.42239C8.25729 0.192933 11.3719 -0.147306 14.5552 0.054124C17.0042 0.208588 19.3677 0.711641 21.5865 1.79289C22.7302 2.35022 23.7719 3.05261 24.6219 4.01279C26.4062 6.03022 26.3729 8.47661 24.524 10.4304C23.2177 11.8101 21.5719 12.6304 19.7948 13.2003C16.2292 14.3442 12.5938 14.4851 8.91979 13.8547C6.69583 13.4737 4.57708 12.7912 2.70208 11.4918C1.48854 10.6516 0.505208 9.62048 0.117708 8.13637C0.0822917 8.00069 0.0395833 7.8671 0 7.73246C0 7.36822 0 7.00293 0 6.63869L0 6.63973Z" fill="#443365" fill-opacity="0.6"/>
<path d="M0 12.3439C2.95208 14.9615 6.52396 16.002 10.3438 16.4195C12.3063 16.6335 14.2646 16.5969 16.3104 16.3475C16.0396 16.6533 15.8198 16.8975 15.6042 17.1449C14.6135 18.2804 13.8073 19.5359 13.2073 20.9178C13.0979 21.1714 12.9688 21.2611 12.6896 21.2538C9.63958 21.1755 6.68438 20.6767 3.9375 19.2729C2.75625 18.6697 1.70313 17.8953 0.898958 16.8151C0.440625 16.1982 0.191667 15.4958 0 14.7653V12.3429V12.3439Z" fill="#443365" fill-opacity="0.6"/>
<path d="M0 26.4061C1.17708 27.4477 2.48333 28.2816 3.93438 28.8911C6.35729 29.9087 8.89375 30.4149 11.5083 30.5537C12.2729 30.5944 12.2771 30.5829 12.4833 31.3072C12.849 32.5889 13.3802 33.7985 14.0646 34.9413C14.1167 35.028 14.1594 35.1198 14.2292 35.2534C13.8938 35.2732 13.5979 35.3045 13.301 35.3056C10.1854 35.3244 7.16042 34.8693 4.31667 33.523C2.98542 32.8936 1.79375 32.0764 0.897917 30.8762C0.439583 30.2604 0.189583 29.5591 0 28.8285V26.4061Z" fill="#443365" fill-opacity="0.6"/>
<path d="M0 19.3752C1.23438 20.4742 2.61875 21.329 4.14896 21.9499C6.47188 22.8934 8.89583 23.3662 11.3896 23.5207C11.6729 23.5384 11.9563 23.5541 12.2937 23.5729C11.9667 25.1071 11.774 26.6204 11.9333 28.2339C11.2469 28.1692 10.5906 28.1285 9.93958 28.0429C7.5625 27.7288 5.27813 27.1151 3.20521 25.8637C2.25 25.2866 1.36458 24.6082 0.7875 23.6407C0.448958 23.0709 0.257292 22.4144 0 21.7965C0 20.9887 0 20.182 0 19.3741V19.3752Z" fill="#443365" fill-opacity="0.6"/>
<circle cx="25.9576" cy="26.8082" r="10.6383" fill="#443365" fill-opacity="0.6"/>
</svg>
