<svg width="38" height="40" viewBox="0 0 38 40" fill="none" xmlns="http://www.w3.org/2000/svg">
<g clip-path="url(#clip0_1083_62)">
<path d="M26.5634 21.6592C20.0996 23.1096 16.501 30.6606 20.1886 36.7005C19.2111 36.821 18.2697 36.9593 17.3234 37.0476C13.0864 37.4448 9.02248 36.6158 5.05957 35.2263C3.45325 34.6634 1.90223 33.9442 0.325968 33.2977C0.120368 33.213 -0.0106865 33.1152 0.000134505 32.8445C0.174473 28.6795 1.21209 24.7841 3.80914 21.4314C6.8234 17.5408 10.8188 15.5263 15.7989 15.7446C20.2872 15.9426 23.8233 18.0155 26.5261 21.5364C26.5429 21.5578 26.5441 21.5912 26.5634 21.6568V21.6592Z" fill="#443365" fill-opacity="0.6"/>
<path d="M28.7863 40.0008C24.0371 40.0044 20.1703 36.1519 20.1655 31.4109C20.1607 26.7236 24.0587 22.8556 28.7827 22.8604C33.5488 22.8651 37.4419 26.6842 37.4479 31.362C37.4539 36.1603 33.6065 39.9984 28.7863 40.0008ZM27.2353 35.3087C26.4958 34.5692 25.8165 33.8548 25.0927 33.1881C24.9003 33.0115 24.5529 32.8708 24.3076 32.909C23.7196 32.9984 23.5946 33.6902 24.0599 34.1601C24.922 35.0284 25.7949 35.8872 26.6642 36.7483C27.2497 37.328 27.6537 37.2922 28.1094 36.6159C29.9381 33.8977 31.7645 31.1771 33.5908 28.4578C33.657 28.3588 33.7255 28.2598 33.7736 28.1524C33.9299 27.803 33.8337 27.5048 33.5331 27.2889C33.2253 27.0671 32.9067 27.1064 32.6326 27.3593C32.5147 27.4678 32.4294 27.6145 32.338 27.7505C30.7341 30.1359 29.1326 32.5213 27.5286 34.9068C27.4433 35.0344 27.3483 35.156 27.2365 35.3111L27.2353 35.3087Z" fill="#443365" fill-opacity="0.6"/>
<path d="M15.1337 14.2863C11.154 14.2899 7.9209 11.0887 7.9209 7.14316C7.9209 3.19647 11.1528 -0.00357514 15.1337 2.99775e-06C19.0918 0.00358114 22.3165 3.19647 22.3249 7.1205C22.3333 11.0696 19.1099 14.2815 15.1337 14.2863Z" fill="#443365" fill-opacity="0.6"/>
</g>
<defs>
<clipPath id="clip0_1083_62">
<rect width="37.4468" height="40" fill="white"/>
</clipPath>
</defs>
</svg>
