<svg width="58" height="34" viewBox="0 0 58 34" fill="none" xmlns="http://www.w3.org/2000/svg">
<g opacity="0.6" clip-path="url(#clip0_1078_55)">
<path d="M-2 26.2277C-1.90461 25.7999 -1.81949 25.3691 -1.71089 24.9442C-0.498679 20.1831 3.41532 17.052 8.45348 16.8852C10.128 16.8301 11.8142 16.8548 13.4843 16.9824C15.1148 17.1071 16.622 17.6959 18.0308 18.6371C15.8706 20.1381 14.2181 22.0162 13.0954 24.3511C11.9712 26.6903 11.6983 29.176 11.7849 31.7865H-2C-2 29.9331 -2 28.0811 -2 26.2277Z" fill="#443365"/>
<path d="M40.9924 33.443H15.357C15.0414 29.5346 15.3599 25.8336 18.3523 22.8838C20.4098 20.8549 22.9091 19.8078 25.809 19.76C27.6434 19.7295 29.4867 19.6991 31.3109 19.8412C35.9044 20.2008 39.7905 23.635 40.6138 28.1351C40.9264 29.8464 40.8736 31.623 40.9924 33.443Z" fill="#443365"/>
<path d="M28.0702 0.000236954C31.7744 -0.0287679 35.0529 2.60778 36.0288 6.39726C37.1999 10.9409 34.5862 15.6005 30.1527 16.8709C26.8169 17.8266 23.2038 16.3735 21.2137 13.2758C18.6161 9.23394 19.8694 3.70126 23.961 1.16768C25.2158 0.390352 26.5924 0.0176399 28.0702 0.000236954Z" fill="#443365"/>
<path d="M57.9632 31.7406H44.3956C44.4866 29.1533 44.1901 26.6546 43.0557 24.3023C41.9212 21.9529 40.2394 20.0763 38.0513 18.5709C39.5585 17.634 41.1097 17.0061 42.815 16.9713C44.9547 16.9278 47.1282 16.7987 49.2327 17.0917C53.992 17.7559 57.636 21.7933 57.9471 26.5429C58.0586 28.2498 57.9647 29.9684 57.9647 31.7391L57.9632 31.7406Z" fill="#443365"/>
<path d="M52.7474 8.30693C52.6535 11.2248 51.6115 13.4147 49.3104 14.907C46.5279 16.7125 42.9441 16.2572 40.5945 13.8527C37.586 10.7723 37.8164 5.59932 41.0847 2.82791C45.0691 -0.54971 51.1375 1.45888 52.4598 6.60289C52.6212 7.23375 52.6784 7.89071 52.7474 8.30693Z" fill="#443365"/>
<path d="M17.5289 8.26779C17.5729 13.4669 13.0557 17.0795 8.42411 15.7061C5.08686 14.717 2.78865 11.1059 3.32138 7.66594C3.82329 4.41304 5.93512 1.98968 8.84383 1.32837C12.6683 0.458223 16.4722 2.95119 17.3308 6.90311C17.4408 7.41069 17.4819 7.93278 17.5289 8.26779Z" fill="#443365"/>
</g>
<defs>
<clipPath id="clip0_1078_55">
<rect width="60" height="33.4426" fill="white" transform="translate(-2)"/>
</clipPath>
</defs>
</svg>
