<svg width="74" height="67" viewBox="0 0 74 67" fill="none" xmlns="http://www.w3.org/2000/svg">
<g clip-path="url(#clip0_1053_60)">
<path d="M73.9998 23.3789C73.7218 24.7433 73.5963 26.1638 73.1272 27.4605C72.4187 29.421 71.465 31.2925 70.6271 33.2065C70.4534 33.6032 70.1657 33.6729 69.7661 33.6729C64.1076 33.6613 58.4473 33.6594 52.7888 33.6768C52.3158 33.6768 52.0707 33.5413 51.8428 33.1136C49.5127 28.7301 47.1593 24.3601 44.8041 19.9901C44.1342 18.7457 42.9488 18.227 41.8793 18.8328C41.3773 19.1173 40.9217 19.6553 40.6669 20.1856C37.9197 25.9219 35.2169 31.6795 32.4987 37.4313C32.379 37.6848 32.24 37.9268 32.0643 38.2616C31.6493 37.6132 31.2863 37.052 30.9292 36.4888C29.3789 34.0464 27.8326 31.6021 26.2765 29.1636C25.1568 27.4102 23.3267 27.4315 22.2513 29.2042C21.4521 30.5241 20.6528 31.844 19.8787 33.1775C19.676 33.5258 19.4578 33.6787 19.035 33.6787C14.0986 33.6632 9.16026 33.6594 4.22384 33.6806C3.73541 33.6826 3.50568 33.489 3.27208 33.102C-3.95398 21.1784 1.49404 7.30986 12.7434 2.11157C20.8787 -1.64684 28.489 -0.214698 35.5432 5.03198C36.0239 5.39001 36.4814 5.78095 36.8869 6.10609C38.4603 5.04165 39.9313 3.90368 41.5298 2.99021C55.4356 -4.95625 70.8897 4.3372 73.5731 17.6348C73.7353 18.4361 73.8569 19.2431 73.9979 20.0482V23.3808L73.9998 23.3789Z" fill="white"/>
<path d="M7.07568 38.0093H9.18192C12.8905 38.0093 16.5972 37.9822 20.3058 38.0248C21.5336 38.0402 22.3695 37.5835 22.939 36.5094C23.3425 35.7469 23.8194 35.025 24.3078 34.2102C24.4835 34.4638 24.6186 34.6476 24.7402 34.8373C26.6032 37.7654 28.4739 40.6878 30.3176 43.6275C30.8292 44.4423 31.4605 45.0016 32.4663 44.9494C33.5049 44.8952 34.0822 44.2468 34.503 43.3547C37.1576 37.7093 39.8275 32.0698 42.4917 26.4302C42.6036 26.1922 42.7214 25.958 42.8778 25.6367C43.0477 25.9231 43.1847 26.1399 43.3064 26.3683C45.1191 29.7416 46.9474 33.109 48.7331 36.4978C49.2911 37.5545 50.0729 38.0306 51.2757 38.0228C56.1638 37.9919 61.0501 38.0093 65.9382 38.0093H66.8591C66.5965 38.3015 66.4382 38.497 66.2606 38.675C57.1156 47.802 47.9686 56.9271 38.8198 66.0503C37.5572 67.3102 36.4066 67.2985 35.1382 66.0348C25.9739 56.8942 16.8076 47.7517 7.64327 38.6112C7.49268 38.4602 7.34789 38.3015 7.07568 38.0112V38.0093Z" fill="white"/>
</g>
<defs>
<clipPath id="clip0_1053_60">
<rect width="74" height="66.9895" fill="white"/>
</clipPath>
</defs>
</svg>
