<svg width="74" height="62" viewBox="0 0 74 62" fill="none" xmlns="http://www.w3.org/2000/svg">
<g clip-path="url(#clip0_1070_54)">
<path d="M74 14.8725C73.6338 15.8209 72.9073 16.299 71.9631 16.6325C60.7667 20.588 49.58 24.5648 38.3971 28.5569C37.4644 28.8904 36.6146 28.9135 35.6703 28.5762C24.3969 24.5513 13.1176 20.5475 1.8307 16.5592C0.946172 16.247 0.346849 15.7188 -0.00195312 14.8725V13.8625C0.360339 12.9083 1.09263 12.4399 2.0369 12.1083C13.2911 8.16818 24.5356 4.20494 35.7763 0.226272C36.6203 -0.0725131 37.3892 -0.0763684 38.2275 0.220489C49.4682 4.1953 60.7127 8.16047 71.965 12.1025C72.9112 12.4341 73.6358 12.9121 74 13.8625V14.8725Z" fill="white"/>
<path d="M58.7373 25.9355C58.7373 29.255 58.7585 32.4529 58.7258 35.647C58.7142 36.8345 58.0127 37.7154 57.1494 38.4556C55.5287 39.8493 53.5824 40.63 51.5821 41.2584C45.4154 43.1976 39.0926 43.693 32.6716 43.1957C28.6478 42.8834 24.6896 42.2088 20.9337 40.6955C19.5019 40.1192 18.1433 39.3019 16.8637 38.4306C15.6863 37.6306 15.2007 36.3892 15.2219 34.9261C15.2623 31.971 15.2334 29.014 15.2334 25.9375C15.5437 26.0281 15.7865 26.084 16.0197 26.1669C22.1131 28.3278 28.2143 30.4674 34.2923 32.6688C36.1269 33.3339 37.8786 33.3339 39.7074 32.6746C45.7661 30.4906 51.8441 28.3567 57.9145 26.2035C58.1573 26.1167 58.402 26.0435 58.7393 25.9355H58.7373Z" fill="white"/>
<path d="M64.4592 23.884C65.8987 23.3732 67.2978 22.8778 68.7952 22.3477C68.7952 22.6811 68.7952 22.9337 68.7952 23.1862C68.7952 28.9344 68.799 34.6846 68.7875 40.4329C68.7875 40.9437 68.8992 41.2829 69.3386 41.6318C71.5682 43.4072 71.5181 46.7073 69.2577 48.4307C68.9108 48.6948 68.7836 48.9531 68.7855 49.381C68.8029 52.6753 68.8029 55.9716 68.7913 59.2679C68.7855 60.8081 67.5368 61.8297 66.1165 61.4963C65.1125 61.2611 64.465 60.3975 64.4631 59.2486C64.4573 55.9774 64.4534 52.7062 64.4689 49.435C64.4708 48.9916 64.3609 48.7082 63.9832 48.4191C61.7035 46.6784 61.7016 43.332 63.9813 41.574C64.3552 41.2868 64.4708 41.0092 64.4689 40.5639C64.4554 35.1762 64.4611 29.7884 64.4611 24.4006C64.4611 24.258 64.4611 24.1134 64.4611 23.8859L64.4592 23.884Z" fill="white"/>
</g>
<defs>
<clipPath id="clip0_1070_54">
<rect width="74" height="61.5575" fill="white"/>
</clipPath>
</defs>
</svg>
