<svg width="56" height="56" viewBox="0 0 56 56" fill="none" xmlns="http://www.w3.org/2000/svg">
<g clip-path="url(#clip0_1087_67)">
<path d="M0 27.9522C0.0757439 24.8 0.12624 21.6414 0.227232 18.4891C0.542831 9.045 7.22723 2.93039 13.4067 0.968144C15.7232 0.233884 18.1217 0.0186697 20.5203 0.0123399C26.1569 -0.0129794 31.7935 -0.000319757 37.4238 0.145266C39.1912 0.189575 40.9648 0.607344 42.7006 1.02511C44.3417 1.41756 45.1434 3.00635 44.67 4.53817C44.2092 6.03201 42.7196 6.73462 41.11 6.39281C39.4941 6.051 37.8467 5.69653 36.2056 5.67121C30.8088 5.58259 25.4121 5.61424 20.0216 5.64589C16.67 5.66488 13.5266 6.40547 10.8756 8.63357C7.85843 11.1592 6.06582 14.3178 5.86384 18.2929C5.52931 24.7556 5.57349 31.2121 5.85122 37.6748C6.13526 44.2389 11.8034 49.923 18.33 50.2142C24.7935 50.5054 31.257 50.5624 37.7205 50.2016C44.4049 49.8218 49.8647 44.4351 50.1551 37.7381C50.3697 32.7755 50.3192 27.794 50.3697 22.825C50.376 22.0655 50.4454 21.3439 50.9188 20.7109C51.6447 19.7424 52.8629 19.3436 54.0117 19.7044C55.1731 20.0716 55.9495 21.1033 55.9495 22.382C55.9495 26.7179 55.9748 31.0602 55.9116 35.3961C55.8801 37.6495 55.7033 39.9029 55.11 42.0994C53.2227 49.0495 46.8665 54.7211 39.7277 55.5819C36.8557 55.93 33.9333 55.9744 31.0361 55.9997C26.8891 56.0313 22.7358 55.9744 18.5888 55.8541C9.25969 55.5756 3.08656 48.9672 1.07935 42.5994C0.3156 40.1751 0.176736 37.6495 0.119928 35.1302C0.0631199 32.7439 0.107304 30.3512 0.107304 27.9649C0.0694319 27.9649 0.037872 27.9649 0 27.9649L0 27.9522Z" fill="#828282"/>
<path d="M27.552 31.7499C27.7792 31.3638 27.9686 31.0283 28.1643 30.6992C33.946 20.888 41.7666 13.1466 51.5944 7.43706C53.1092 6.55722 54.7693 6.92435 55.5899 8.31058C56.4294 9.72846 55.9496 11.3932 54.3969 12.2857C46.0714 17.1027 39.286 23.5528 34.1291 31.6866C32.9614 33.5286 31.9388 35.4719 30.9226 37.4025C29.8054 39.5166 27.7414 39.8774 26.0497 38.1874C22.4203 34.5477 18.7783 30.9207 15.1552 27.2684C13.5709 25.667 14.1453 23.135 16.2283 22.521C17.3518 22.1919 18.3239 22.5084 19.157 23.3439C21.7639 25.9708 24.3771 28.5787 26.9902 31.1992C27.1543 31.3638 27.3311 31.5221 27.5583 31.7373L27.552 31.7499Z" fill="#00A66A"/>
</g>
<defs>
<clipPath id="clip0_1087_67">
<rect width="56" height="56" fill="white"/>
</clipPath>
</defs>
</svg>
