<svg width="14" height="22" viewBox="0 0 14 22" fill="none" xmlns="http://www.w3.org/2000/svg">
<path d="M8.9111 11.0508C8.73473 10.8664 8.63119 10.7526 8.5231 10.6445C6.08362 8.20445 3.64186 5.76555 1.20465 3.32324C0.427523 2.54479 0.352426 1.52052 1.0044 0.761426C1.64499 0.0148473 2.7134 -0.0978223 3.49281 0.501944C3.61569 0.596405 3.72833 0.706799 3.8387 0.817192C6.73104 3.70791 9.62337 6.59976 12.5146 9.49162C13.5397 10.517 13.5375 11.4889 12.5089 12.5178C9.5881 15.4403 6.66277 18.3584 3.7454 21.2855C3.22201 21.8113 2.61555 22.0492 1.89189 21.8671C0.59592 21.5427 0.0986936 19.9801 0.952057 18.9479C1.06015 18.817 1.18417 18.6987 1.30478 18.578C3.70444 16.1778 6.10296 13.7776 8.50489 11.3797C8.61526 11.2693 8.74725 11.1817 8.9111 11.0485V11.0508Z" fill="white"/>
</svg>
