<svg width="14" height="9" viewBox="0 0 14 9" fill="none" xmlns="http://www.w3.org/2000/svg">
<path d="M6.96914 5.74646C7.07976 5.64065 7.14805 5.57852 7.21292 5.51366C8.67694 4.04998 10.1403 2.58492 11.6057 1.1226C12.0727 0.656319 12.6873 0.61126 13.1428 1.00244C13.5907 1.3868 13.6583 2.02785 13.2984 2.49549C13.2418 2.56922 13.1755 2.6368 13.1093 2.70303C11.3749 4.43843 9.63975 6.17383 7.90464 7.90855C7.2894 8.52365 6.70624 8.52228 6.08895 7.90513C4.3354 6.15266 2.58459 4.39747 0.828306 2.64705C0.512831 2.33301 0.370115 1.96913 0.47937 1.53494C0.673982 0.757356 1.61153 0.45902 2.23087 0.971039C2.3094 1.03589 2.38041 1.11031 2.4528 1.18267C3.89292 2.62247 5.33304 4.06158 6.7718 5.50274C6.83803 5.56896 6.89061 5.64815 6.97051 5.74646L6.96914 5.74646Z" fill="#787878"/>
</svg>
