<svg width="13" height="21" viewBox="0 0 13 21" fill="none" xmlns="http://www.w3.org/2000/svg">
<path d="M4.80697 10.4528C4.9701 10.6234 5.06588 10.7286 5.16586 10.8287C7.42239 13.0857 9.68101 15.3417 11.9354 17.6008C12.6543 18.3209 12.7237 19.2683 12.1207 19.9705C11.5281 20.6611 10.5398 20.7653 9.81889 20.2105C9.70522 20.1231 9.60102 20.021 9.49893 19.9189C6.82352 17.245 4.14811 14.57 1.47376 11.8951C0.525472 10.9466 0.527576 10.0475 1.47902 9.09587C4.18074 6.39248 6.88667 3.69331 9.58524 0.98571C10.0694 0.499353 10.6304 0.279333 11.2997 0.447767C12.4985 0.747793 12.9584 2.19318 12.1691 3.148C12.0691 3.26906 11.9544 3.37854 11.8428 3.49013C9.62313 5.71032 7.40449 7.93051 5.1827 10.1486C5.08061 10.2507 4.95853 10.3318 4.80697 10.4549L4.80697 10.4528Z" fill="white"/>
</svg>
