<svg width="13" height="21" viewBox="0 0 13 21" fill="none" xmlns="http://www.w3.org/2000/svg">
<path d="M8.19254 10.5472C8.02941 10.3766 7.93363 10.2714 7.83365 10.1713C5.57713 7.91431 3.3185 5.65833 1.06408 3.39919C0.345239 2.67913 0.275774 1.73168 0.878847 1.02951C1.47139 0.338929 2.45968 0.23471 3.18063 0.789494C3.29429 0.87687 3.39849 0.978985 3.50058 1.0811C6.17599 3.75501 8.8514 6.42998 11.5258 9.10494C12.474 10.0534 12.4719 10.9525 11.5205 11.9041C8.81877 14.6075 6.11284 17.3067 3.41427 20.0143C2.93013 20.5006 2.36916 20.7207 1.69978 20.5522C0.501002 20.2522 0.0410686 18.8068 0.83043 17.852C0.930416 17.7309 1.04514 17.6215 1.1567 17.5099C3.37638 15.2897 5.59502 13.0695 7.81681 10.8514C7.9189 10.7493 8.04099 10.6682 8.19254 10.5451L8.19254 10.5472Z" fill="white"/>
</svg>
