<svg width="40" height="40" viewBox="0 0 40 40" fill="none" xmlns="http://www.w3.org/2000/svg">
<path d="M29.3561 25.858C31.7768 22.5544 32.861 18.4585 32.3918 14.3897C31.9226 10.321 29.9346 6.57939 26.8256 3.9136C23.7166 1.2478 19.7159 -0.145638 15.6237 0.0120615C11.5316 0.169761 7.64992 1.86697 4.75524 4.76413C1.86055 7.66129 0.166365 11.5448 0.0116159 15.6376C-0.143133 19.7304 1.25297 23.7307 3.92062 26.8382C6.58826 29.9458 10.3307 31.9313 14.3993 32.3977C18.4678 32.864 22.5623 31.7767 25.8638 29.3534H25.8613C25.9363 29.4534 26.0163 29.5484 26.1063 29.6409L35.7309 39.2669C36.1997 39.7361 36.8355 39.9998 37.4987 40C38.1618 40.0002 38.7979 39.737 39.267 39.2682C39.7361 38.7994 39.9998 38.1634 40 37.5001C40.0002 36.8369 39.737 36.2007 39.2683 35.7316L29.6436 26.1056C29.5543 26.0151 29.4581 25.934 29.3561 25.858ZM30.0011 16.247C30.0011 18.0529 29.6455 19.8411 28.9545 21.5095C28.2635 23.1779 27.2507 24.6938 25.974 25.9708C24.6972 27.2477 23.1815 28.2606 21.5133 28.9517C19.8452 29.6428 18.0572 29.9985 16.2516 29.9985C14.446 29.9985 12.6581 29.6428 10.9899 28.9517C9.32177 28.2606 7.80604 27.2477 6.52928 25.9708C5.25252 24.6938 4.23974 23.1779 3.54877 21.5095C2.85779 19.8411 2.50215 18.0529 2.50215 16.247C2.50215 12.5999 3.95075 9.10221 6.52928 6.52332C9.10781 3.94443 12.605 2.49563 16.2516 2.49563C19.8982 2.49563 23.3955 3.94443 25.974 6.52332C28.5525 9.10221 30.0011 12.5999 30.0011 16.247Z" fill="#666666"/>
</svg>
